<svg width="20" height="15" viewBox="0 0 20 15" fill="none" xmlns="http://www.w3.org/2000/svg">
<path d="M6.66671 10.6667L16.5 0.833333C16.8056 0.527777 17.1945 0.375 17.6667 0.375C18.1389 0.375 18.5278 0.527777 18.8334 0.833333C19.1389 1.13889 19.2917 1.52778 19.2917 2C19.2917 2.47222 19.1389 2.86111 18.8334 3.16667L7.83337 14.1667C7.50004 14.5 7.11115 14.6667 6.66671 14.6667C6.22226 14.6667 5.83337 14.5 5.50004 14.1667L1.16671 9.83333C0.861151 9.52778 0.708374 9.13889 0.708374 8.66667C0.708374 8.19444 0.861151 7.80556 1.16671 7.5C1.47226 7.19444 1.86115 7.04167 2.33337 7.04167C2.8056 7.04167 3.19449 7.19444 3.50004 7.5L6.66671 10.6667Z" fill="black"/>
</svg>
